<?xml version="1.0" standalone="no"?>
<!DOCTYPE svg PUBLIC "-//W3C//DTD SVG 20010904//EN"
 "http://www.w3.org/TR/2001/REC-SVG-20010904/DTD/svg10.dtd">
<svg version="1.0" xmlns="http://www.w3.org/2000/svg"
 width="2900.000000pt" height="2900.000000pt" viewBox="0 0 2900.000000 2900.000000"
 preserveAspectRatio="xMidYMid meet">
<metadata>
Created by potrace 1.14, written by Peter Selinger 2001-2017
</metadata>
<g transform="translate(0.000000,2900.000000) scale(0.100000,-0.100000)"
fill="#000000" stroke="none">
<path d="M0 14500 l0 -14500 14500 0 14500 0 0 14500 0 14500 -14500 0 -14500
0 0 -14500z m22345 7302 c94 -12 193 -26 220 -31 28 -5 88 -16 135 -25 171
-31 352 -77 540 -137 115 -37 150 -49 235 -84 17 -7 46 -18 65 -25 19 -7 63
-26 98 -42 35 -15 66 -28 69 -28 14 0 347 -173 428 -222 50 -30 95 -57 100
-59 60 -25 518 -357 594 -429 9 -9 48 -43 86 -75 89 -75 425 -411 490 -490 28
-33 60 -71 73 -85 45 -48 159 -197 288 -375 50 -69 179 -274 239 -380 40 -70
164 -318 198 -393 32 -71 137 -342 137 -354 0 -3 5 -19 12 -35 25 -60 81 -257
120 -423 95 -404 142 -928 119 -1342 -21 -373 -39 -524 -101 -833 -22 -111
-110 -436 -129 -480 -5 -11 -23 -60 -41 -110 -29 -82 -67 -181 -107 -275 -26
-61 -156 -324 -178 -360 -12 -19 -37 -62 -55 -95 -32 -59 -257 -405 -270 -415
-3 -3 -22 -27 -41 -55 -18 -27 -36 -52 -39 -55 -3 -3 -28 -34 -55 -70 -27 -36
-76 -96 -109 -135 -34 -38 -77 -88 -96 -110 -42 -48 -400 -406 -456 -455 -158
-139 -424 -344 -584 -449 -47 -31 -87 -58 -90 -61 -7 -7 -41 -28 -65 -40 -11
-6 -65 -37 -120 -71 -103 -62 -344 -184 -498 -253 -48 -21 -87 -42 -87 -46 0
-5 47 -100 104 -211 121 -240 395 -781 1141 -2254 94 -187 258 -509 362 -715
105 -206 300 -591 433 -855 134 -264 307 -607 386 -763 79 -155 144 -285 144
-287 0 -2 -618 -4 -1374 -5 -1088 0 -1376 3 -1384 12 -10 13 -278 543 -1061
2103 -201 402 -369 732 -373 733 -5 2 -8 8 -8 12 0 14 -124 265 -132 268 -5 2
-8 8 -8 12 0 13 31 -48 -1405 2805 -653 1298 -654 1300 -647 1302 4 2 518 4
1142 6 624 2 1164 7 1200 10 444 46 761 154 1097 373 208 136 467 376 618 574
28 36 53 67 56 70 17 13 135 205 178 290 126 244 203 492 243 780 17 125 17
538 0 645 -55 341 -145 606 -282 831 -22 35 -40 66 -40 69 0 2 -21 35 -47 72
-47 67 -58 81 -78 106 -6 7 -18 22 -26 34 -42 61 -214 242 -340 358 -210 193
-524 386 -764 470 -27 9 -59 21 -70 25 -32 14 -196 58 -240 65 -22 4 -54 11
-71 16 -103 32 -243 33 -4883 38 l-4654 6 -294 585 c-162 322 -438 870 -613
1218 l-318 632 5356 -3 5357 -3 170 -22z m-17647 -344 c233 -464 773 -1535
1206 -2393 528 -1045 799 -1582 1116 -2210 161 -319 404 -800 540 -1070 136
-269 384 -760 550 -1090 166 -330 405 -802 530 -1050 125 -247 359 -711 520
-1030 393 -780 819 -1623 1066 -2113 112 -221 204 -408 204 -415 0 -19 -1374
-2761 -1384 -2762 -8 0 -106 194 -1408 2785 -391 778 -887 1766 -1103 2195
-216 429 -663 1320 -995 1980 -331 660 -795 1583 -1030 2050 -235 468 -653
1298 -928 1845 -274 547 -797 1587 -1161 2311 -363 724 -661 1319 -661 1323 0
3 620 6 1378 6 l1377 0 183 -362z m6006 -623 c733 -1459 1549 -3081 1806
-3590 125 -247 521 -1035 880 -1750 359 -715 656 -1304 660 -1310 4 -5 157
-308 339 -672 183 -365 335 -663 339 -663 4 0 617 1218 1362 2705 l1355 2705
1382 0 1383 0 -2737 -5475 c-1506 -3011 -2741 -5475 -2745 -5475 -3 0 -93 172
-198 383 -106 210 -322 639 -480 952 -158 314 -487 966 -730 1450 -481 957
-1003 1993 -1500 2980 -175 347 -532 1058 -795 1580 -263 523 -598 1189 -745
1480 -147 292 -482 958 -745 1480 -263 523 -609 1211 -770 1530 -884 1754
-1335 2654 -1335 2664 0 8 361 10 1391 9 l1390 -3 493 -980z"/>
</g>
</svg>
